<svg xmlns="http://www.w3.org/2000/svg" width="571.368" height="125.253" viewBox="0 0 151.175 33.14"><path d="M11.488 28.78h-.668C4.341 28.78 0 23.302 0 16.756v-.802C0 9.577 4.341 3.933 10.82 3.933h.668c5.21 0 8.683 3.573 9.451 7.114h-3.04c-.733-2.472-3.138-4.542-6.745-4.542-5.21 0-8.115 4.441-8.115 9.651v.4c0 5.21 2.905 9.652 8.115 9.652 3.907 0 6.178-2.17 6.946-5.11h3.006c-.835 4.141-4.408 7.681-9.618 7.681M23.869 4.334h2.939v24.045h-2.94zM32.847 17.926H42.7c-.234-3.006-1.57-5.31-4.709-5.31-3.106 0-4.842 2.304-5.143 5.31m12.824 1.37v.8h-12.89c.066 3.507 1.936 6.28 5.677 6.28 2.705 0 3.94-1.437 4.441-2.94h2.94c-.702 2.973-3.374 5.343-7.114 5.343h-.668c-4.91 0-8.182-4.007-8.182-8.749v-.935c0-4.442 3.04-8.85 7.781-8.85h.668c4.809 0 7.347 4.175 7.347 9.05M55.153 26.509c2.771 0 5.11-2.405 5.11-4.943V17.96c-.936.435-3.107.902-5.043 1.27-2.238.367-4.375 1.068-4.375 3.406v.233c0 2.171 1.636 3.64 4.308 3.64m5.644 1.87l-.368-2.771c-1.302 2.004-3.506 3.172-5.61 3.172h-.601c-3.44 0-6.279-2.37-6.279-5.944v-.468c0-3.873 4.142-4.875 7.214-5.376 2.17-.367 5.11-.701 5.11-1.97v-.301c0-1.436-1.537-2.237-3.875-2.237-2.337 0-4.14.8-4.14 2.938v.334h-2.94v-.467c0-3.307 3.474-5.043 6.646-5.043h.835c3.173 0 6.412 1.436 6.412 4.609v9.45c0 1.336.2 2.705.501 4.075zM67.17 28.379V10.646h2.94v3.172c1.168-2.17 3.272-3.44 6.411-3.44h.568v2.772h-.601c-4.141 0-6.379 1.603-6.379 6.179v9.05zM94.545 19.931c0-4.255-1.6-7.522-5.173-7.522-1.328 0-2.587.544-3.438 1.43v9.837c0 2.96 1.362 4.526 3.37 4.526 3.199 0 5.241-3.642 5.241-8.27M79.875 4.298v-.136l5.923-1.77h.136v11.14c1.225-1.77 3.233-3.336 5.888-3.336 4.119 0 6.57 3.267 6.57 8.202 0 5.753-3.915 10.314-9.19 10.314-2.383 0-5.276-.613-7.08-2.145V5.593zM110.54 10.197c.613 0 1.123.204 1.362.442v3.2h-.545c-2.11 0-4.016.238-5.48 1.871v10.688c0 1.327.851 1.396 3.097 1.6v.374h-9.258v-.374c1.702-.102 2.349-.239 2.349-1.566V13.396l-2.247-1.294v-.135l6.059-1.77h.136l-.136 5.207c1.396-3.302 2.621-5.207 4.663-5.207M114.52 5.398c0-1.328 1.022-2.417 2.417-2.417 1.43 0 2.45 1.09 2.45 2.417 0 1.293-1.02 2.382-2.45 2.382-1.395 0-2.417-1.09-2.417-2.382m4.425 21.034c0 1.328.68 1.464 2.383 1.566v.374h-8.544v-.374c1.702-.102 2.349-.238 2.349-1.566V13.396l-2.246-1.293v-.136l5.922-1.77h.136zM125.887 16.732h7.693c0-3.336-.987-5.99-3.472-5.99-2.383 0-3.915 2.722-4.22 5.99m4.424 11.98c-4.799 0-7.863-3.811-7.863-8.78 0-5.515 3.609-9.735 8.101-9.735 4.255 0 6.535 2.995 6.535 6.84v.274h-11.232v.544c0 5.105 2.45 8.135 6.059 8.135 2.28 0 4.084-1.022 5.276-2.86l.135.069c-.782 3.165-3.403 5.514-7.01 5.514M147.635 27.998v.374h-9.258v-.374c1.702-.102 2.348-.238 2.348-1.566V11.966h-2.484v-.204l2.484-1.191V9.005c0-4.697 2.689-7.283 6.535-7.283 2.519 0 3.915 1.089 3.915 2.586 0 .817-.443 1.532-1.022 1.873h-2.212c.102-.443.17-.886.17-1.464 0-1.362-.34-2.587-1.498-2.587-1.327 0-2.076 1.361-2.076 3.88v4.868h4.323v1.088h-4.323v14.432c0 1.327.851 1.395 3.098 1.6" fill="#333"/><path d="M77.13 0v33.14" fill="none" stroke="#333" stroke-width=".57326" stroke-miterlimit="10"/></svg>