<svg xmlns="http://www.w3.org/2000/svg" width="741.459" height="235.282" viewBox="0 0 196.178 62.252"><path d="M196.178 62.252H0V0h196.178z" fill="#ece6e3"/><path d="M33.324 41.807h-.668c-6.479 0-10.82-5.477-10.82-12.022v-.802c0-6.378 4.341-12.022 10.82-12.022h.668c5.21 0 8.683 3.573 9.45 7.113h-3.038c-.735-2.471-3.14-4.542-6.746-4.542-5.21 0-8.115 4.442-8.115 9.652v.4c0 5.21 2.905 9.651 8.115 9.651 3.907 0 6.178-2.17 6.946-5.109h3.006c-.835 4.14-4.409 7.68-9.618 7.68M45.705 17.362h2.938v24.045h-2.938zM54.683 30.953h9.852c-.234-3.005-1.57-5.31-4.71-5.31-3.105 0-4.841 2.305-5.142 5.31m12.824 1.37v.801h-12.89c.066 3.507 1.936 6.279 5.676 6.279 2.705 0 3.941-1.436 4.442-2.94h2.939c-.701 2.973-3.373 5.344-7.113 5.344h-.668c-4.91 0-8.182-4.007-8.182-8.75v-.935c0-4.441 3.039-8.85 7.781-8.85h.668c4.809 0 7.347 4.175 7.347 9.05M76.989 39.536c2.771 0 5.11-2.404 5.11-4.942v-3.607c-.936.434-3.107.902-5.044 1.269-2.237.368-4.375 1.069-4.375 3.406v.234c0 2.17 1.637 3.64 4.309 3.64m5.643 1.87l-.367-2.772c-1.303 2.004-3.507 3.173-5.61 3.173h-.601c-3.44 0-6.279-2.371-6.279-5.944v-.468c0-3.874 4.141-4.876 7.214-5.376 2.17-.368 5.11-.702 5.11-1.971v-.3c0-1.437-1.537-2.238-3.875-2.238s-4.14.801-4.14 2.939v.334h-2.94v-.468c0-3.306 3.474-5.042 6.646-5.042h.835c3.172 0 6.412 1.435 6.412 4.608v9.451c0 1.336.2 2.705.5 4.074zM89.006 41.406V23.673h2.94v3.173c1.168-2.17 3.272-3.44 6.411-3.44h.568v2.772h-.601c-4.141 0-6.379 1.603-6.379 6.178v9.05zM116.381 32.959c0-4.255-1.6-7.522-5.174-7.522-1.327 0-2.586.544-3.437 1.43v9.836c0 2.961 1.361 4.527 3.37 4.527 3.199 0 5.241-3.642 5.241-8.271m-14.67-15.632v-.136l5.923-1.77h.136V26.56c1.225-1.77 3.233-3.336 5.888-3.336 4.119 0 6.57 3.268 6.57 8.203 0 5.752-3.915 10.313-9.19 10.313-2.383 0-5.276-.613-7.08-2.144V18.62zM132.376 23.224c.613 0 1.123.204 1.361.443v3.2h-.544c-2.11 0-4.017.237-5.48 1.87v10.689c0 1.327.85 1.395 3.097 1.6v.374h-9.258v-.375c1.702-.102 2.349-.238 2.349-1.565V26.424l-2.247-1.294v-.136l6.059-1.77h.136l-.136 5.208c1.395-3.302 2.62-5.208 4.663-5.208M136.356 18.425c0-1.327 1.021-2.417 2.417-2.417 1.43 0 2.45 1.09 2.45 2.417 0 1.293-1.02 2.383-2.45 2.383-1.396 0-2.417-1.09-2.417-2.383m4.425 21.035c0 1.327.68 1.463 2.383 1.565v.375h-8.544v-.375c1.702-.102 2.349-.238 2.349-1.565V26.424l-2.247-1.294v-.136l5.923-1.77h.136zM147.723 29.76h7.692c0-3.336-.987-5.991-3.472-5.991-2.382 0-3.914 2.723-4.22 5.99m4.425 11.981c-4.8 0-7.863-3.812-7.863-8.781 0-5.514 3.608-9.735 8.101-9.735 4.255 0 6.535 2.995 6.535 6.841v.273h-11.232v.544c0 5.106 2.45 8.135 6.059 8.135 2.28 0 4.084-1.021 5.275-2.859l.136.068c-.783 3.166-3.403 5.514-7.011 5.514M169.47 41.025v.375h-9.257v-.375c1.701-.102 2.348-.238 2.348-1.566V24.994h-2.485v-.204l2.485-1.192v-1.565c0-4.697 2.689-7.284 6.535-7.284 2.518 0 3.914 1.09 3.914 2.587 0 .817-.442 1.531-1.02 1.872h-2.213c.102-.443.17-.885.17-1.464 0-1.361-.34-2.587-1.498-2.587-1.327 0-2.076 1.362-2.076 3.88v4.868h4.323v1.089h-4.323v14.432c0 1.327.851 1.395 3.097 1.6" fill="#333"/><path d="M98.965 13.028v33.14" fill="none" stroke="#333" stroke-width=".57326" stroke-miterlimit="10"/></svg>